nRows=26
nColumns=19
inDegrees=yes
endheader
time	ground_force_vx	ground_force_vy	ground_force_vz	ground_force_px	ground_force_py	ground_force_pz	1_ground_force_vx	1_ground_force_vy	1_ground_force_vz	1_ground_force_px	1_ground_force_py	1_ground_force_pz	ground_torque_x	ground_torque_y	ground_torque_z	1_ground_torque_x	1_ground_torque_y	1_ground_torque_z
23.854	-0.193370836660256	0.145384023794671	0.0877606299541576	0.300000012	0	0.609999999	-0.0156621287170239	-0.019863419004425	-0.0419575221788964	0.300000012	0	0.2050000005	-0.327697	0.043281	0.327697	-0	0.019476	0
23.855	-0.193493058060562	0.144981311390442	0.088842577173173	0.300000012	0	0.609999999	-0.0142918443280538	-0.0176920156403377	-0.0428073175639369	0.300000012	0	0.2050000005	1.728984	0.043281	-1.728984	-0	0.023083	0
23.856	-0.193618461435499	0.144186158418007	0.0897976114992421	0.300000012	0	0.609999999	-0.012996372475005	-0.0159358690367769	-0.0436421615309188	0.300000012	0	0.2050000005	0.201036	0.040395	-0.201036	-184192688	0.023083	184192688
23.857	-0.193760682713167	0.143039286381407	0.0905714414109265	0.300000012	0	0.609999999	-0.01180831455072	-0.0146187749446755	-0.044456164095126	0.300000012	0	0.2050000005	38.241314	0.039674	-38.241314	-388915.1875	0.017312	388915.1875
23.858	-0.193931723307318	0.141591959244681	0.0911143536965097	0.300000012	0	0.609999999	-0.0107599302563004	-0.0137584571267506	-0.0452429933238177	0.300000012	0	0.2050000005	21.871197	0.041838	-21.871197	-184192688	0.01587	184192688
23.859	-0.194141594801263	0.139903086279515	0.0913839052878306	0.300000012	0	0.609999999	-0.00988222032940271	-0.01336503873798	-0.04599628065334	0.300000012	0	0.2050000005	0.868363	0.045445	-0.868363	-0	0.007935	0
23.86	-0.19439823705746	0.138035962722988	0.0913472577322791	0.300000012	0	0.609999999	-0.00920402506829968	-0.0134397600153857	-0.0467101679271671	0.300000012	0	0.2050000005	1.138561	0.045445	-1.138561	0	0.006492	-0
23.861	-0.194707694975528	0.136054855296054	0.0909830063954506	0.300000012	0	0.609999999	-0.008751180304549	-0.0139740375189118	-0.0473799469603792	0.300000012	0	0.2050000005	5.164383	0.044002	-5.164383	-515801.09375	0.017312	515801.09375
23.862	-0.195074513154044	0.134021647124699	0.0902823899468495	0.300000012	0	0.609999999	-0.00854577126653085	-0.0149489325187602	-0.0480027249601793	0.300000012	0	0.2050000005	9.839594	0.046888	-9.839594	-0	0.010099	0
23.863	-0.195502284829305	0.131992749479155	0.0892498082105211	0.300000012	0	0.609999999	-0.00860552043094384	-0.0163350662279912	-0.0485780393723187	0.300000012	0	0.2050000005	40333.9375	0.047609	-40333.9375	-61098.0625	0.013706	61098.0625
23.864	-0.195994274313305	0.130016466871649	0.087902624789604	0.300000012	0	0.609999999	-0.00894333791683746	-0.0180929902821943	-0.049108345528669	0.300000012	0	0.2050000005	12.360645	0.043281	-12.360645	-0	0.021641	0
23.865	-0.196554023091173	0.128130968944949	0.0862702807278229	0.300000012	0	0.609999999	-0.00956705260412361	-0.0201739946735185	-0.0495993101512134	0.300000012	0	0.2050000005	25.498447	0.041838	-25.498447	-0	0.014427	0
23.866	-0.19718585033854	0.126362979431552	0.0843927920476168	0.300000012	0	0.609999999	-0.0104793297843967	-0.0225213142581322	-0.050059861939348	0.300000012	0	0.2050000005	100.560814	0.047609	-100.560814	0	0.016591	-0
23.867	-0.197895169275331	0.124727242145861	0.0823187427947937	0.300000012	0	0.609999999	-0.0116777679941875	-0.0250716801291881	-0.0505019743208268	0.300000012	0	0.2050000005	21.140701	0.045445	-21.140701	-0	0.016591	0
23.868	-0.198688560516082	0.12322676991841	0.0801029129018128	0.300000012	0	0.609999999	-0.01315515518633	-0.0277571534789007	-0.0509401814133982	0.300000012	0	0.2050000005	7.071316	0.049052	-7.071316	-0	0.01587	0
23.869	-0.199573570194292	0.121853828307107	0.0778036951764011	0.300000012	0	0.609999999	-0.0148998540072825	-0.0305071755623984	-0.0513908528660724	0.300000012	0	0.2050000005	40.960846	0.047609	-40.960846	-0	0.010099	0
23.87	-0.200558231093152	0.120591555575539	0.0754804582003428	0.300000012	0	0.609999999	-0.0168962788150028	-0.0332507654545211	-0.0518712739179254	0.300000012	0	0.2050000005	25.497169	0.041838	-25.497169	-287710.34375	0.01082	287710.34375
23.871	-0.201650336022938	0.119416077429361	0.0731910033931651	0.300000012	0	0.609999999	-0.0191254237582489	-0.0359187945794527	-0.0523985923023869	0.300000012	0	0.2050000005	272.844727	0.051216	-272.844727	-0	0.01082	0
23.872	-0.202856521178859	0.118298942700607	0.0709892472564286	0.300000012	0	0.609999999	-0.0215654015837227	-0.0384462612908164	-0.0529887031616323	0.300000012	0	0.2050000005	1.269392	0.05338	-1.269392	-0	0.007214	0
23.873	-0.204181240545715	0.117209687487431	0.0689232364699862	0.300000012	0	0.609999999	-0.02419195609757	-0.0407744795234541	-0.053655147174112	0.300000012	0	0.2050000005	0.094024	0.040396	-0.094024	-0	0.01587	0
23.874	-0.205625728402026	0.116118332433982	0.067033576566175	0.300000012	0	0.609999999	-0.0269789164651253	-0.0428530843712206	-0.0544080960709398	0.300000012	0	0.2050000005	1.822102	0.036067	-1.822102	-0	0.01082	0
23.875	-0.207187053978736	0.114997632052549	0.0653523264446198	0.300000012	0	0.609999999	-0.0298985681667213	-0.0446417480486361	-0.0552534939661333	0.300000012	0	0.2050000005	-0.408827	0.044002	0.408827	-0	0.01587	0
23.876	-0.208857369470587	0.113824925869387	0.0639023825095513	0.300000012	0	0.609999999	-0.0329219233556088	-0.0461114968312674	-0.0561924127129323	0.300000012	0	0.2050000005	-0.360467	0.043281	0.360467	-0	0.01587	0
23.877	-0.210623439974379	0.112583486299268	0.0626973487055038	0.300000012	0	0.609999999	-0.03601888291908	-0.0472455276887752	-0.0572206652287405	0.300000012	0	0.2050000005	-0.481887	0.044002	0.481887	-0	0.007214	0
23.878	-0.212466522616796	0.111263312864076	0.0617418629297444	0.300000012	0	0.609999999	-0.0391582940759481	-0.0480394452097971	-0.0583287032107756	0.300000012	0	0.2050000005	1.429101	0.047609	-1.429101	-0	0.005049	0
23.879	-0.214362634021995	0.109861380094929	0.0610323269343457	0.300000012	0	0.609999999	-0.0423079207554704	-0.0485008752378822	-0.0595018062125592	0.300000012	0	0.2050000005	1928.974121	0.031018	-1928.974121	-0	0.015148	0
